<?xml version="1.0" encoding="utf-8"?>
<svg version="1.1" xmlns:xlink="http://www.w3.org/1999/xlink" width="28px" height="28px" xmlns="http://www.w3.org/2000/svg">
  <g transform="matrix(1 0 0 1 -1025 -4800 )">
    <path d="M 1039 4801  C 1046.28 4801  1052 4806.72  1052 4814  C 1052 4821.28  1046.28 4827  1039 4827  C 1031.72 4827  1026 4821.28  1026 4814  C 1026 4806.72  1031.72 4801  1039 4801  Z " fill-rule="nonzero" fill="#ffffff" stroke="none" fill-opacity="0" />
    <path d="M 1039 4801  C 1046.28 4801  1052 4806.72  1052 4814  C 1052 4821.28  1046.28 4827  1039 4827  C 1031.72 4827  1026 4821.28  1026 4814  C 1026 4806.72  1031.72 4801  1039 4801  Z " stroke-width="2" stroke="#cccccc" fill="none" />
  </g>
</svg>