<?xml version="1.0" encoding="utf-8"?>
<svg version="1.1" xmlns:xlink="http://www.w3.org/1999/xlink" width="28px" height="28px" xmlns="http://www.w3.org/2000/svg">
  <g transform="matrix(1 0 0 1 -1025 -4484 )">
    <path d="M 1039 4485  C 1046.28 4485  1052 4490.72  1052 4498  C 1052 4505.28  1046.28 4511  1039 4511  C 1031.72 4511  1026 4505.28  1026 4498  C 1026 4490.72  1031.72 4485  1039 4485  Z " fill-rule="nonzero" fill="#1890ff" stroke="none" />
    <path d="M 1039 4485  C 1046.28 4485  1052 4490.72  1052 4498  C 1052 4505.28  1046.28 4511  1039 4511  C 1031.72 4511  1026 4505.28  1026 4498  C 1026 4490.72  1031.72 4485  1039 4485  Z " stroke-width="2" stroke="#108ee9" fill="none" />
  </g>
</svg>