<?xml version="1.0" encoding="utf-8"?>
<svg version="1.1" xmlns:xlink="http://www.w3.org/1999/xlink" width="28px" height="28px" xmlns="http://www.w3.org/2000/svg">
  <g transform="matrix(1 0 0 1 -1025 -4367 )">
    <path d="M 1039 4368  C 1046.28 4368  1052 4373.72  1052 4381  C 1052 4388.28  1046.28 4394  1039 4394  C 1031.72 4394  1026 4388.28  1026 4381  C 1026 4373.72  1031.72 4368  1039 4368  Z " fill-rule="nonzero" fill="#ffffff" stroke="none" />
    <path d="M 1039 4368  C 1046.28 4368  1052 4373.72  1052 4381  C 1052 4388.28  1046.28 4394  1039 4394  C 1031.72 4394  1026 4388.28  1026 4381  C 1026 4373.72  1031.72 4368  1039 4368  Z " stroke-width="2" stroke="#1890ff" fill="none" />
  </g>
</svg>