<?xml version="1.0" encoding="utf-8"?>
<svg version="1.1" xmlns:xlink="http://www.w3.org/1999/xlink" width="65px" height="33px" xmlns="http://www.w3.org/2000/svg">
  <g transform="matrix(1 0 0 1 -1389 -11617 )">
    <path d="M 63.5 26.2857142857143  L 63.5 5.71428571428571  C 63.4181818181819 2.19428571428573  61.6513621460506 0.571428571428571  58.0673621460507 0.571428571428571  L 0 0.571428571428571  L 0 31.5  L 58.0673621460507 31.5  C 61.6513621460506 31.4285714285714  63.4181818181819 29.8057142857143  63.5 26.2857142857143  Z " fill-rule="nonzero" fill="#ebebeb" stroke="none" transform="matrix(1 0 0 1 1389 11617 )" />
    <path d="M 0 31.5  L 58.0673621460507 31.5  C 61.6513621460506 31.4285714285714  63.4181818181819 29.8057142857143  63.5 26.2857142857143  L 63.5 5.71428571428571  C 63.4181818181819 2.19428571428573  61.6513621460506 0.571428571428571  58.0673621460507 0.571428571428571  L 0 0.571428571428571  " stroke-width="1" stroke="#d9d9d9" fill="none" transform="matrix(1 0 0 1 1389 11617 )" />
  </g>
</svg>