<?xml version="1.0" encoding="utf-8"?>
<svg version="1.1" xmlns:xlink="http://www.w3.org/1999/xlink" width="68px" height="32px" xmlns="http://www.w3.org/2000/svg">
  <defs>
    <mask fill="white" id="clip55">
      <path d="M 68 27.4285714285714  L 68 4.57142857142857  C 68 2.01142857142857  66.13 0  63.75 0  L 0 0  L 0 32  L 63.75 32  C 66.13 32  68 29.9885714285714  68 27.4285714285714  Z " fill-rule="evenodd" />
    </mask>
  </defs>
  <g transform="matrix(1 0 0 1 -676 -3970 )">
    <path d="M 68 27.4285714285714  L 68 4.57142857142857  C 68 2.01142857142857  66.13 0  63.75 0  L 0 0  L 0 32  L 63.75 32  C 66.13 32  68 29.9885714285714  68 27.4285714285714  Z " fill-rule="nonzero" fill="#ffffff" stroke="none" transform="matrix(1 0 0 1 676 3970 )" />
    <path d="M 68 27.4285714285714  L 68 4.57142857142857  C 68 2.01142857142857  66.13 0  63.75 0  L 0 0  L 0 32  L 63.75 32  C 66.13 32  68 29.9885714285714  68 27.4285714285714  Z " stroke-width="2" stroke="#d9d9d9" fill="none" transform="matrix(1 0 0 1 676 3970 )" mask="url(#clip55)" />
  </g>
</svg>