<?xml version="1.0" encoding="utf-8"?>
<svg version="1.1" xmlns:xlink="http://www.w3.org/1999/xlink" width="104px" height="104px" xmlns="http://www.w3.org/2000/svg">
  <g transform="matrix(1 0 0 1 -663 -4222 )">
    <path d="M 664 4226  A 3 3 0 0 1 667 4223 L 763 4223  A 3 3 0 0 1 766 4226 L 766 4322  A 3 3 0 0 1 763 4325 L 667 4325  A 3 3 0 0 1 664 4322 L 664 4226  Z " fill-rule="nonzero" fill="#ffffff" stroke="none" />
    <path d="M 663.5 4226  A 3.5 3.5 0 0 1 667 4222.5 L 763 4222.5  A 3.5 3.5 0 0 1 766.5 4226 L 766.5 4322  A 3.5 3.5 0 0 1 763 4325.5 L 667 4325.5  A 3.5 3.5 0 0 1 663.5 4322 L 663.5 4226  Z " stroke-width="1" stroke-dasharray="9,4" stroke="#d9d9d9" fill="none" stroke-dashoffset="0.5" />
  </g>
</svg>