<?xml version="1.0" encoding="utf-8"?>
<svg version="1.1" xmlns:xlink="http://www.w3.org/1999/xlink" width="78px" height="78px" xmlns="http://www.w3.org/2000/svg">
  <g transform="matrix(1 0 0 1 -193 -463 )">
    <path d="M 232 463  C 253.84 463  271 480.16  271 502  C 271 523.84  253.84 541  232 541  C 210.16 541  193 523.84  193 502  C 193 480.16  210.16 463  232 463  Z " fill-rule="nonzero" fill="#ffffff" stroke="none" />
    <path d="M 232 463.5  C 253.56 463.5  270.5 480.44  270.5 502  C 270.5 523.56  253.56 540.5  232 540.5  C 210.44 540.5  193.5 523.56  193.5 502  C 193.5 480.44  210.44 463.5  232 463.5  Z " stroke-width="1" stroke="#797979" fill="none" />
  </g>
</svg>