<?xml version="1.0" encoding="utf-8"?>
<svg version="1.1" xmlns:xlink="http://www.w3.org/1999/xlink" width="15px" height="19px" xmlns="http://www.w3.org/2000/svg">
  <g transform="matrix(1 0 0 1 -459 -130 )">
    <path d="M 13.980251953125 13.768607421875  C 13.9880078125 15.89489453125  12.373908203125 17.974603515625  11.171083984375 17.974603515625  L 5.15696289062498 17.974603515625  C 4.17143164062497 17.974603515625  3.72911132812504 17.260677734375  3.333326171875 16.632109375  C 3.31005859375 16.59330859375  3.27901367187496 16.5545078125  3.24796875000004 16.51570703125  C 3.20916796874997 16.461373046875  3.17814453124998 16.41481640625  3.147099609375 16.376015625  L 0.337910156250018 12.201064453125  C -0.259613281249983 11.31640234375  -0.0268085937500473 10.105822265625  0.86560937500002 9.50829882812499  C 1.18379296875003 9.29100585937502  1.55626757812502 9.182380859375  1.94427539062497 9.182380859375  C 2.39437304687499 9.182380859375  2.828916015625 9.33756250000002  3.170388671875 9.61692382812498  L 3.170388671875 2.14390625000001  C 3.170388671875 1.07301757812499  4.0006953125 0.203867187499981  5.01729296874998 0.203867187499981  C 6.03386914062497 0.203867187499981  6.86419726562502 1.07301757812499  6.86419726562502 2.14390625000001  L 6.86419726562502 4.80564843750003  C 7.1047578125 4.65820117187499  7.37638476562501 4.57284375  7.66350195312498 4.57284375  C 8.22998046875 4.57284375  8.734390625 4.88325  9.04479687500003 5.379904296875  C 9.33969140624998 5.13156640624999  9.69663281250001 4.98411914062501  10.06912890625 4.98411914062501  C 10.744275390625 4.98411914062501  11.3495546875 5.44972851562497  11.613404296875 6.12487499999997  C 11.822919921875 6.023984375  12.04796875 5.96967187499999  12.2807734375 5.96967187499999  C 13.219748046875 5.96967187499999  13.980251953125 6.83880078125  13.980251953125 7.90971093749997  L 13.980251953125 13.768607421875  Z M 1.93649804687499 9.94286328125  C 1.703693359375 9.94286328125  1.47866601562498 10.0126875  1.29239648437505 10.1368671875  C 0.756962890625005 10.493830078125  0.617292968750007 11.21551171875  0.974255859375035 11.75098828125  L 3.78342382812502 15.92591796875  C 3.80669140624997 15.96471875  3.837736328125 16.00351953125  3.86878124999998 16.05009765625  C 3.89982617187502 16.096654296875  3.93087109375 16.1432109375  3.96189453124998 16.18201171875  L 3.96967187500002 16.1975234375  C 4.39648046875004 16.88042578125  4.63704101562502 17.183076171875  5.14142968750002 17.183076171875  L 11.15555078125 17.183076171875  C 11.8151640625 17.183076171875  13.19648046875 15.56119921875  13.19648046875 13.760830078125  L 13.19648046875 7.90193359374999  C 13.19648046875 7.27336523437501  12.769671875 6.73791015624997  12.273017578125 6.73791015624997  C 12.04796875 6.73791015624997  11.830697265625 6.84655664062501  11.652205078125 7.04056054687499  L 11.0391484375 7.73121874999998  L 10.96932421875 6.81551171875  C 10.92274609375 6.22576562500001  10.5192265625 5.76013476562503  10.045861328125 5.76013476562503  C 9.73545507812497 5.76013476562503  9.43280468750004 5.96967187499999  9.26208984375 6.31110156249997  L 8.76543554687504 7.312166015625  L 8.53263085937499 6.21798828124997  C 8.42398437500003 5.71357812500003  8.05150976562499 5.34110351562501  7.64021289062498 5.34110351562501  C 7.29876171875003 5.34110351562501  6.97284374999998 5.59719726562497  6.80988476562499 5.99293945312499  L 6.06489257812501 7.85537695312499  L 6.06489257812501 2.14390625000001  C 6.06489257812501 1.49980468749999  5.58377148437501 0.979882812499994  4.99400390625004 0.979882812499994  C 4.40423632812502 0.979882812499994  3.92309375000002 1.49980468749999  3.92309375000002 2.14390625000001  L 3.92309375000002 11.983771484375  L 2.90651757812503 10.455029296875  C 2.68924609375 10.136845703125  2.33228320312497 9.942841796875  1.93649804687499 9.942841796875  Z " fill-rule="nonzero" fill="#f5f6fa" stroke="none" transform="matrix(1 0 0 1 459 130 )" />
  </g>
</svg>