<?xml version="1.0" encoding="utf-8"?>
<svg version="1.1" xmlns:xlink="http://www.w3.org/1999/xlink" width="18px" height="18px" xmlns="http://www.w3.org/2000/svg">
  <g transform="matrix(1 0 0 1 -763 -130 )">
    <path d="M 17.8876323529412 8.93355882352941  C 17.8876323529412 4.05608823529411  13.9109558823529 0.0903970588235268  9.03348529411767 0.0903970588235268  C 4.1560147058824 0.0903970588235268  0.17933823529404 4.06707352941174  0.17933823529404 8.94454411764704  C 0.17933823529404 9.44986764705885  0.234264705882424 9.95519117647061  0.322147058823475 10.4605147058824  L 0.33313235294122 10.4605147058824  C 0.366088235294114 10.5923382352941  0.475941176470542 10.6802205882353  0.607764705882346 10.6802205882353  C 0.772544117647044 10.6802205882353  0.904367647058848 10.5483970588235  0.904367647058848 10.3836176470588  C 0.904367647058848 10.3726323529412  0.904367647058848 10.3616470588235  0.893382352941103 10.3506617647059  C 0.805500000000052 9.8892794117647  0.772544117647044 9.41691176470587  0.761558823529413 8.94454411764704  C 0.761558823529413 4.38564705882354  4.46360294117653 0.683602941176474  9.02250000000004 0.683602941176474  C 13.5813970588235 0.683602941176474  17.2834411764705 4.38564705882354  17.2834411764705 8.94454411764704  C 17.2834411764705 13.5034411764706  13.5813970588235 17.2054852941177  9.02250000000004 17.2054852941177  C 5.96858823529419 17.2054852941177  3.31014705882353 15.5467058823529  1.88205882352941 13.086  C 1.88205882352941 13.0750147058823  1.87107352941177 13.0750147058823  1.87107352941177 13.0640294117648  C 1.8161470588235 12.9651617647059  1.71727941176471 12.9102352941176  1.61841176470591 12.9102352941176  C 1.45363235294121 12.9102352941176  1.32180882352941 13.0420588235294  1.32180882352941 13.2068382352941  C 1.32180882352941 13.27275  1.34377941176467 13.3276764705882  1.37673529411768 13.3716176470589  C 2.91467647058823 16.0080882352941  5.75986764705885 17.7877058823529  9.03348529411767 17.7877058823529  C 13.9109558823529 17.7877058823529  17.8876323529412 13.8110294117647  17.8876323529412 8.93355882352941  Z " fill-rule="nonzero" fill="#f5f6fa" stroke="none" transform="matrix(1 0 0 1 763 130 )" />
  </g>
</svg>