<?xml version="1.0" encoding="utf-8"?>
<svg version="1.1" xmlns:xlink="http://www.w3.org/1999/xlink" width="8px" height="5px" xmlns="http://www.w3.org/2000/svg">
  <g transform="matrix(1 0 0 1 -768 -139 )">
    <path d="M 7.87386666666657 4.50220588235297  C 7.8517333333333 2.18308823529412  6.13639999999998 0.291176470588255  4.03373333333332 0.291176470588255  C 1.93106666666665 0.291176470588255  0.215733333333219 2.18308823529412  0.215733333333219 4.50220588235297  C 0.215733333333219 4.68529411764706  0.348533333333307 4.83176470588234  0.514533333333247 4.83176470588234  C 0.680533333333415 4.83176470588234  0.813333333333276 4.68529411764706  0.813333333333276 4.50220588235297  C 0.813333333333276 2.53705882352941  2.26306666666665 0.938088235294089  4.04480000000001 0.938088235294089  C 5.82653333333337 0.938088235294089  7.27626666666663 2.53705882352941  7.27626666666663 4.50220588235297  C 7.27626666666663 4.68529411764706  7.4090666666666 4.83176470588234  7.57506666666666 4.83176470588234  C 7.74106666666671 4.83176470588234  7.87386666666657 4.68529411764706  7.87386666666657 4.50220588235297  Z " fill-rule="nonzero" fill="#f5f6fa" stroke="none" transform="matrix(1 0 0 1 768 139 )" />
  </g>
</svg>