<?xml version="1.0" encoding="utf-8"?>
<svg version="1.1" xmlns:xlink="http://www.w3.org/1999/xlink" width="6px" height="6px" xmlns="http://www.w3.org/2000/svg">
  <g transform="matrix(1 0 0 1 -769 -134 )">
    <path d="M 5.78230434782608 2.91965217391302  C 5.78230434782608 4.51108695652172  4.49400000000003 5.79939130434781  2.90256521739127 5.79939130434781  C 1.31113043478263 5.79939130434781  0.0228260869565702 4.51108695652172  0.0228260869565702 2.91965217391302  C 0.0228260869565702 1.32821739130435  1.31113043478263 0.0399130434782364  2.90256521739127 0.0399130434782364  C 4.49400000000003 0.0399130434782364  5.78230434782608 1.32821739130435  5.78230434782608 2.91965217391302  Z M 5.19769565217393 2.90882608695651  C 5.19769565217393 1.65299999999999  4.16921739130441 0.624521739130415  2.90256521739127 0.613695652173931  C 1.63591304347835 0.613695652173931  0.596608695652208 1.64217391304345  0.596608695652208 2.90882608695651  C 0.596608695652208 4.1754782608696  1.63591304347835 5.21478260869566  2.90256521739127 5.21478260869566  C 4.16921739130441 5.21478260869566  5.19769565217393 4.18630434782611  5.19769565217393 2.90882608695651  Z " fill-rule="nonzero" fill="#f5f6fa" stroke="none" transform="matrix(1 0 0 1 769 134 )" />
  </g>
</svg>