<?xml version="1.0" encoding="utf-8"?>
<svg version="1.1" xmlns:xlink="http://www.w3.org/1999/xlink" width="113px" height="104px" xmlns="http://www.w3.org/2000/svg">
  <g transform="matrix(1 0 0 1 -417 -3065 )">
    <path d="M 418 3069  A 3 3 0 0 1 421 3066 L 526 3066  A 3 3 0 0 1 529 3069 L 529 3165  A 3 3 0 0 1 526 3168 L 421 3168  A 3 3 0 0 1 418 3165 L 418 3069  Z " fill-rule="nonzero" fill="#000000" stroke="none" fill-opacity="0.0196078431372549" />
    <path d="M 417.5 3069  A 3.5 3.5 0 0 1 421 3065.5 L 526 3065.5  A 3.5 3.5 0 0 1 529.5 3069 L 529.5 3165  A 3.5 3.5 0 0 1 526 3168.5 L 421 3168.5  A 3.5 3.5 0 0 1 417.5 3165 L 417.5 3069  Z " stroke-width="1" stroke-dasharray="9,4" stroke="#000000" fill="none" stroke-opacity="0.149019607843137" stroke-dashoffset="0.5" />
  </g>
</svg>