<?xml version="1.0" encoding="utf-8"?>
<svg version="1.1" xmlns:xlink="http://www.w3.org/1999/xlink" width="798px" height="39px" xmlns="http://www.w3.org/2000/svg">
  <defs>
    <mask fill="white" id="clip53">
      <path d="M 0 39  L 0 0  L 139.613259668508 0  L 507.016574585635 0  L 511.425414364641 0  L 798 0  L 798 39  L 0 39  Z " fill-rule="evenodd" />
    </mask>
  </defs>
  <g transform="matrix(1 0 0 1 -16 -135 )">
    <path d="M 0 39  L 0 0  L 139.613259668508 0  L 507.016574585635 0  L 511.425414364641 0  L 798 0  L 798 39  L 0 39  Z " fill-rule="nonzero" fill="#ffffff" stroke="none" transform="matrix(1 0 0 1 16 135 )" />
    <path d="M 0 39  L 0 0  L 139.613259668508 0  L 507.016574585635 0  L 511.425414364641 0  L 798 0  L 798 39  L 0 39  Z " stroke-width="2" stroke="#ffffff" fill="none" transform="matrix(1 0 0 1 16 135 )" mask="url(#clip53)" />
  </g>
</svg>