<?xml version="1.0" encoding="utf-8"?>
<svg version="1.1" xmlns:xlink="http://www.w3.org/1999/xlink" width="113px" height="104px" xmlns="http://www.w3.org/2000/svg">
  <g transform="matrix(1 0 0 1 -435 -1331 )">
    <path d="M 436 1335  A 3 3 0 0 1 439 1332 L 544 1332  A 3 3 0 0 1 547 1335 L 547 1431  A 3 3 0 0 1 544 1434 L 439 1434  A 3 3 0 0 1 436 1431 L 436 1335  Z " fill-rule="nonzero" fill="#000000" stroke="none" fill-opacity="0.0196078431372549" />
    <path d="M 435.5 1335  A 3.5 3.5 0 0 1 439 1331.5 L 544 1331.5  A 3.5 3.5 0 0 1 547.5 1335 L 547.5 1431  A 3.5 3.5 0 0 1 544 1434.5 L 439 1434.5  A 3.5 3.5 0 0 1 435.5 1431 L 435.5 1335  Z " stroke-width="1" stroke-dasharray="9,4" stroke="#000000" fill="none" stroke-opacity="0.149019607843137" stroke-dashoffset="0.5" />
  </g>
</svg>