<?xml version="1.0" encoding="utf-8"?>
<svg version="1.1" xmlns:xlink="http://www.w3.org/1999/xlink" width="273px" height="32px" xmlns="http://www.w3.org/2000/svg">
  <defs>
    <mask fill="white" id="clip49">
      <path d="M 0 28  L 0 4  C 0 1.75999999999999  1.75999999999999 0  4 0  L 73.030303030303 0  L 269 0  C 271.24 0  273 1.75999999999999  273 4  L 273 28  C 273 30.24  271.24 32  269 32  L 4 32  C 1.75999999999999 32  0 30.24  0 28  Z " fill-rule="evenodd" />
    </mask>
  </defs>
  <g transform="matrix(1 0 0 1 -440 -1146 )">
    <path d="M 0 28  L 0 4  C 0 1.75999999999999  1.75999999999999 0  4 0  L 73.030303030303 0  L 269 0  C 271.24 0  273 1.75999999999999  273 4  L 273 28  C 273 30.24  271.24 32  269 32  L 4 32  C 1.75999999999999 32  0 30.24  0 28  Z " fill-rule="nonzero" fill="#ffffff" stroke="none" transform="matrix(1 0 0 1 440 1146 )" />
    <path d="M 0 28  L 0 4  C 0 1.75999999999999  1.75999999999999 0  4 0  L 73.030303030303 0  L 269 0  C 271.24 0  273 1.75999999999999  273 4  L 273 28  C 273 30.24  271.24 32  269 32  L 4 32  C 1.75999999999999 32  0 30.24  0 28  Z " stroke-width="2" stroke="#d9d9d9" fill="none" transform="matrix(1 0 0 1 440 1146 )" mask="url(#clip49)" />
  </g>
</svg>