<?xml version="1.0" encoding="utf-8"?>
<svg version="1.1" xmlns:xlink="http://www.w3.org/1999/xlink" width="153px" height="41px" xmlns="http://www.w3.org/2000/svg">
  <defs>
    <mask fill="white" id="clip31">
      <path d="M 0 39  L 0 2  C 0 0.880000000000109  0.880000000000109 0  2 0  C 2 0  60.744186046511 1.33333333333303  90.1162790697665 2  C 90.1162790697665 1.33333333333303  90.1162790697665 0  90.1162790697665 0  L 151 0  C 152.12 0  153 0.880000000000109  153 2  L 153 39  C 153 40.1199999999999  152.12 41  151 41  L 2 41  C 0.880000000000109 41  0 40.1199999999999  0 39  Z " fill-rule="evenodd" />
    </mask>
  </defs>
  <g transform="matrix(1 0 0 1 -791 -4150 )">
    <path d="M 0 39  L 0 2  C 0 0.880000000000109  0.880000000000109 0  2 0  C 2 0  60.744186046511 1.33333333333303  90.1162790697665 2  C 90.1162790697665 1.33333333333303  90.1162790697665 0  90.1162790697665 0  L 151 0  C 152.12 0  153 0.880000000000109  153 2  L 153 39  C 153 40.1199999999999  152.12 41  151 41  L 2 41  C 0.880000000000109 41  0 40.1199999999999  0 39  Z " fill-rule="nonzero" fill="#00ceb4" stroke="none" transform="matrix(1 0 0 1 791 4150 )" />
    <path d="M 0 39  L 0 2  C 0 0.880000000000109  0.880000000000109 0  2 0  C 2 0  60.744186046511 1.33333333333303  90.1162790697665 2  C 90.1162790697665 1.33333333333303  90.1162790697665 0  90.1162790697665 0  L 151 0  C 152.12 0  153 0.880000000000109  153 2  L 153 39  C 153 40.1199999999999  152.12 41  151 41  L 2 41  C 0.880000000000109 41  0 40.1199999999999  0 39  Z " stroke-width="2" stroke="#0088cc" fill="none" transform="matrix(1 0 0 1 791 4150 )" mask="url(#clip31)" />
  </g>
</svg>