<?xml version="1.0" encoding="utf-8"?>
<svg version="1.1" xmlns:xlink="http://www.w3.org/1999/xlink" width="14px" height="14px" xmlns="http://www.w3.org/2000/svg">
  <g transform="matrix(1 0 0 1 -418 -1383 )">
    <path d="M 425 1383  C 428.92 1383  432 1386.08  432 1390  C 432 1393.92  428.92 1397  425 1397  C 421.08 1397  418 1393.92  418 1390  C 418 1386.08  421.08 1383  425 1383  Z " fill-rule="nonzero" fill="#ffffff" stroke="none" fill-opacity="0" />
    <path d="M 425 1383.5  C 428.64 1383.5  431.5 1386.36  431.5 1390  C 431.5 1393.64  428.64 1396.5  425 1396.5  C 421.36 1396.5  418.5 1393.64  418.5 1390  C 418.5 1386.36  421.36 1383.5  425 1383.5  Z " stroke-width="1" stroke="#d9d9d9" fill="none" />
  </g>
</svg>