<?xml version="1.0" encoding="utf-8"?>
<svg version="1.1" xmlns:xlink="http://www.w3.org/1999/xlink" width="104px" height="104px" xmlns="http://www.w3.org/2000/svg">
  <g transform="matrix(1 0 0 1 -419 -1752 )">
    <path d="M 420 1756  A 3 3 0 0 1 423 1753 L 519 1753  A 3 3 0 0 1 522 1756 L 522 1852  A 3 3 0 0 1 519 1855 L 423 1855  A 3 3 0 0 1 420 1852 L 420 1756  Z " fill-rule="nonzero" fill="#000000" stroke="none" fill-opacity="0.0196078431372549" />
    <path d="M 419.5 1756  A 3.5 3.5 0 0 1 423 1752.5 L 519 1752.5  A 3.5 3.5 0 0 1 522.5 1756 L 522.5 1852  A 3.5 3.5 0 0 1 519 1855.5 L 423 1855.5  A 3.5 3.5 0 0 1 419.5 1852 L 419.5 1756  Z " stroke-width="1" stroke-dasharray="9,4" stroke="#000000" fill="none" stroke-opacity="0.149019607843137" stroke-dashoffset="0.5" />
  </g>
</svg>